<svg width="800" height="200" xmlns="http://www.w3.org/2000/svg" viewBox="0 0 800 200">
  <!-- Background -->
  <rect width="100%" height="100%" fill="#1E40AF"/>
    <!-- Default Blue Shape -->
  <path d="M0,190C630,70,690,50,750,60C780,65,800,100,800,100C800,100,800,200,750,200C700,200,650,200,600,200C550,200,500,200,450,200C400,200,350,200,300,200C250,200,200,200,150,200C100,200,50,200,0,200C0,200,0,100,0,100Z" fill="#1D4ED8"/>
  <!-- Light Blue Shape -->
  <path d="M0,200 h150 C300,0 200,10 150,40 Z"/>
  <!-- Default Blue Shape -->
  <path d="M0,100C30,50,90,70,150,80C210,90,270,110,300,90C330,70,390,70,450,80C510,90,570,110,600,90C630,70,690,50,750,60C780,65,800,100,800,100C800,100,800,200,750,200C700,200,650,200,600,200C550,200,500,200,450,200C400,200,350,200,300,200C250,200,200,200,150,200C100,200,50,200,0,200C0,200,0,100,0,100Z" fill="#1D4ED8"/>
  <!-- Light Blue Shape
  <path d="M0,0C20,0,20,20,0,20C0,20,0,0,0,0Z" fill="#D3E5FF"/> -->
</svg>
