<svg width="800" height="200" xmlns="http://www.w3.org/2000/svg" viewBox="0 0 800 200">
  <!-- Background -->
  <rect width="100%" height="100%" fill="#1E40AF"/>
  <!-- Irregular rounded shapes -->
  <!-- Light Blue -->
  <path d="M100 100c0-40 30-60 60-60 30 0 40 20 60 40 20 20 40 30 60 20 20-10 40-30 60-10 20 20 30 50 10 80 -20 30-50 40-80 30 -30-10-40-20-60-40 -20-20-40-30-60-20 -20 10-40 30-60 10 -20-20-30-50-10-80 20-30 50-40 80-30 30 10 40 20 60 40 20 20 40 30 60 20 20-10 40-30 60-10 20 20 30 50 10 80 -20 30-50 40-80 30 -30-10-40-20-60-40 -20-20-40-30-60-20 -20 10-40 30-60 10 -20-20-30-50-10-80 20-30 50-40 80-30 30 10 40 20 60 40 20 20 40 30 60 20 20-10 40-30 60-10 20 20 30 50 10 80 -20 30-50 40-80 30 -30-10-40-20-60-40 -20-20-40-30-60-20 -20 10-40 30-60 10 -20-20-30-50-10-80 20-30 50-40 80-30 30 10 40 20 60 40 20 20 40 30 60 20 20-10 40-30 60-10 20 20 30 50 10 80 -20 30-50 40-80 30 -30-10-40-20-60-40 -20-20-40-30-60-20 -20 10-40 30-60 10 -20-20-30-50-10-80 20-30 50-40 80-30 30 10 40 20 60 40 20 20 40 30 60 20 20-10 40-30 60-10 20 20 30 50 10 80 -20 30-50 40-80 30 -30-10-40-20-60-40 -20-20-40-30-60-20 -20 10-40 30-60 10 -20-20-30-50-10-80 20-30 50-40 80-30 30 10 40 20 60 40 20 20 40 30 60 20 20-10 40-30 60-10 20 20 30 50 10 80 -20 30-50 40-80 30 -30-10-40-20-60-40 -20-20-40-30-60-20 -20 10-40 30-60 10 -20-20-30-50-10-80 20-30 50-40 80-30 30 10 40 20 60 40 20 20 40 30 60 20 20-10 40-30 60-10 20 20 30 50 10 80 -20 30-50 40-80 30 -30-10-40-20-60-40 -20-20-40-30-60-20 -20 10-40 30-60 10 -20-20-30-50-10-80 20-30 50-40 80-30 30 10 40 20 60 40 20 20 40 30 60 20 20-10 40-30 60-10 20 20 30 50 10 80 -20 30-50 40-80 30 -30-10-40-20-60-40 -20-20-40-30-60-20 -20 10-40 30-60 10 -20-20-30-50-10-80z" fill="#D3E5FF"/>
  <!-- Default Blue -->
  <path d="M250 50c0-20 10-30 30-30 20 0 30 10 50 20 20 10 30 20 50 10 20-10 40-30 60-10 20 20 30 50 10 80 -20 30-50 40-80 30 -30-10-40-20-60-40 -20-20-40-30-60-20 -20 10-40 30-60 10 -20-20-30-50-10-80 20-30 50-40 80-30 30 10 40 20 60 40 20 20 30 30 50 20 20-10 40-30 60-10 20 20 30 50 10 80 -20 30-50 40-80 30 -30-10-40-20-60-40 -20-20-40-30-60-20 -20 10-40 30-60 10 -20-20-30-50-10-80 20-30 50-40 80-30 30 10 40 20 60 40 20 20 30 30 50 20 20-10 40-30 60-10 20 20 30 50 10 80 -20 30-50 40-80 30 -30-10-40-20-60-40 -20-20-40-30-60-20 -20 10-40 30-60 10 -20-20-30-50-10-80 20-30 50-40 80-30 30 10 40 20 60 40 20 20 30 30 50 20 20-10 40-30 60-10 20 20 30 50 10 80 -20 30-50 40-80 30 -30-10-40-20-60"
  fill="#1D4ED8">
</rect>
</svg>