<svg version="1.1" xmlns="http://www.w3.org/2000/svg" xmlns:xlink="http://www.w3.org/1999/xlink" width="1541.46276" height="398.90311" viewBox="154.53724,284,1541.46276,398.90311">
  <g id="document" fill="#ffffff" fill-rule="nonzero" stroke="#000000" stroke-width="0" stroke-linecap="butt" stroke-linejoin="miter" stroke-miterlimit="10" stroke-dasharray="" stroke-dashoffset="0" font-family="none" font-weight="none" font-size="none" text-anchor="none" style="mix-blend-mode: normal">
    <rect x="71.09375" y="361.11111" transform="scale(2.19429,0.792)" width="700" height="500" id="Shape 1 1" vector-effect="non-scaling-stroke" />
  </g>
  <g fill="none" fill-rule="nonzero" stroke-opacity="0" stroke="#000000" stroke-width="1" stroke-linecap="round" stroke-linejoin="round" stroke-miterlimit="10" stroke-dasharray="" stroke-dashoffset="0" font-family="none" font-weight="none" font-size="none" text-anchor="none" style="mix-blend-mode: normal">
    <g id="stage">
      <g id="layer1 1">
        <path d="M155,681v-397h1541v397z" id="Path 1" fill="#1e40af" />
        <path d="M433.26822,681c-16.12173,-18.80376 -34.59845,-35.0882 -56.45571,-49.08454c-27.44233,-17.57274 -61.15313,-29.12043 -82.30189,-54.93282c-23.70098,-28.92742 -12.66621,-66.19028 -11.20032,-99.73151c0.83296,-19.0589 -2.35545,-38.0751 -12.94132,-54.3461c-23.44989,-36.04364 -75.34998,-40.10108 -115.36898,-42.42789v-96.47714h340.69599c1.10032,5.69794 1.54652,12.12221 0.90992,18.10319c-3.21789,30.23316 -24.46742,53.69388 -45.42954,73.93629c-10.59155,10.22789 -22.54401,19.97546 -30.62726,32.42249c-10.83433,16.6833 -20.31414,37.33127 -16.78899,57.75124c4.07108,23.58237 22.39491,38.7586 41.02383,51.92848c21.97505,15.53544 44.78543,30.65647 66.23202,47.09617c24.79551,19.00679 49.927,42.11479 63.85483,70.50458c7.11794,14.50884 11.72422,29.74503 15.46462,45.25756z" id="Path 1" fill="#1d4ed8" />
        <path d="M1134.53863,681.00002c29.17243,-8.59842 55.73586,-22.02217 75.57514,-43.64279c13.06086,-14.23358 23.67663,-30.14793 33.26576,-46.82128c6.30143,-10.95678 12.15775,-22.18805 17.63936,-33.56839c20.42355,-42.40123 40.64565,-112.07699 102.96399,-103.50289c13.88869,1.91089 24.5941,7.1497 35.43012,15.76948c5.39269,4.28973 10.0628,9.81127 13.79901,15.56919c7.58557,11.69021 12.90703,24.15364 14.1153,38.08399c3.33121,38.4062 -22.20663,74.46906 -17.67151,113.09881c2.07359,17.66261 9.607,31.75939 19.76119,45.01389z" id="Path 1" fill="#d3e5ff" />
        <path d="M1316.29142,442.99465c-21.28479,-26.60319 -35.60596,-60.47837 -69.96278,-72.56071c-36.01424,-12.66521 -76.07189,-9.71104 -113.07359,-18.78112c-44.16613,-10.82627 -80.41058,-34.84102 -109.15074,-67.65282h624.24421c-8.47275,11.73903 -17.41647,23.07015 -27.44329,33.60946c-21.95322,23.07531 -47.47344,42.35871 -69.37374,65.51119c-36.95616,40.29427 -59.90997,98.94465 -120.33553,107.16361c-4.41305,0.60026 -8.85653,0.89582 -13.30312,0.9265c-1.11176,-1.99038 -2.29138,-3.95689 -3.53093,-5.90255c-3.76895,-5.91592 -8.47998,-11.58897 -13.91992,-15.99643c-10.93097,-8.8563 -21.73018,-14.23889 -35.74056,-16.20221c-13.45778,-1.88588 -24.96943,-0.08727 -34.95359,4.33215c-4.77758,-4.39996 -9.27236,-9.21754 -13.45641,-14.44707z" id="Path 1" fill="#1d4ed8" />
        <path d="M154.53724,317.06006c40.43974,2.83255 92.88547,7.7719 116.5819,51.64981c10.69716,19.80759 13.91909,42.95705 13.07738,66.1585c-1.4813,40.8316 -12.63208,86.19373 11.31807,121.40867c21.3711,31.42285 55.43632,45.48049 83.16716,66.87275c22.08705,17.03852 40.75803,36.86247 57.04925,59.75332h-281.19376z" id="Path 1" fill="#d3e5ff" />
      </g>
    </g>
  </g>
</svg>