<svg width="800" height="200" xmlns="http://www.w3.org/2000/svg" viewBox="0 0 800 200">
  <!-- Background -->
  <rect width="100%" height="100%" fill="#1E40AF"/>
  <!-- Irregular rounded shapes -->
  <!-- Light Blue -->
  <path d="M100,100C80,60,130,30,160,40C190,50,200,70,220,50C240,30,260,20,280,30C300,40,310,70,330,50C350,30,370,20,390,30C410,40,420,70,440,50C460,30,480,20,500,30C520,40,530,70,550,50C570,30,590,20,610,30C630,40,640,70,660,50C680,30,700,20,720,30C740,40,750,70,770,50C790,30,820,60,800,100C780,140,750,170,700,150C650,130,570,150,530,120C490,90,520,20,460,10C400,0,350,30,300,50C250,70,220,50,200,90C180,130,160,90,100,100Z" fill="#D3E5FF"/>
  <!-- Default Blue -->
  <path d="M250,50C230,30,240,0,270,10C300,20,320,50,350,30C380,10,400,0,430,10C460,20,480,50,510,30C540,10,560,0,590,10C620,20,640,50,670,30C700,10,720,0,750,10C780,20,800,50,800,100C800,150,750,180,700,160C650,140,570,160,530,130C490,100,520,20,460,10C400,0,350,30,300,50C250,70,220,50,200,90C180,130,160,90,100,100C60,110,40,130,40,150C40,170,90,190,100,180C110,170,120,150,150,160C180,170,200,190,230,180C260,170,260,130,290,120C320,110,300,100,250,50Z" fill="#1D4ED8"/>
</svg>
